<svg width="170" height="26" viewBox="0 0 170 26" fill="none" xmlns="http://www.w3.org/2000/svg">
<path fill-rule="evenodd" clip-rule="evenodd" d="M4.65736 24.1325C4.53094 24.8531 5.24198 25.4172 5.86995 25.0944L13.0024 21.4285L20.1349 25.0944C20.7629 25.4172 21.4739 24.8531 21.3475 24.1325L19.9992 16.4471L25.723 10.9925C26.2579 10.4828 25.981 9.55072 25.2644 9.44892L17.3044 8.31813L13.7552 1.2875C13.4355 0.654168 12.5694 0.654168 12.2497 1.2875L8.70049 8.31813L0.740471 9.44892C0.0238633 9.55072 -0.253037 10.4828 0.281882 10.9925L6.00567 16.4471L4.65736 24.1325ZM12.6273 19.6343L6.638 22.7126L7.76616 16.282C7.81934 15.9789 7.71935 15.6685 7.5017 15.4611L2.77808 10.9597L9.36308 10.0242C9.6353 9.98552 9.87298 9.81166 10.0014 9.55729L13.0024 3.6125L16.0035 9.55729C16.1319 9.81166 16.3696 9.98552 16.6418 10.0242L23.2268 10.9597L18.5032 15.4611C18.2855 15.6685 18.1855 15.9789 18.2387 16.282L19.3669 22.7126L13.3775 19.6343C13.1409 19.5126 12.8639 19.5126 12.6273 19.6343Z" fill="#9D875C"/>
<path fill-rule="evenodd" clip-rule="evenodd" d="M40.6574 24.1325C40.5309 24.8531 41.242 25.4172 41.87 25.0944L49.0024 21.4285L56.1349 25.0944C56.7629 25.4172 57.4739 24.8531 57.3475 24.1325L55.9992 16.4471L61.723 10.9925C62.2579 10.4828 61.981 9.55072 61.2644 9.44892L53.3044 8.31813L49.7552 1.2875C49.4355 0.654168 48.5694 0.654168 48.2497 1.2875L44.7005 8.31813L36.7405 9.44892C36.0239 9.55072 35.747 10.4828 36.2819 10.9925L42.0057 16.4471L40.6574 24.1325ZM48.6273 19.6343L42.638 22.7126L43.7662 16.282C43.8193 15.9789 43.7193 15.6685 43.5017 15.4611L38.7781 10.9597L45.3631 10.0242C45.6353 9.98552 45.873 9.81166 46.0014 9.55729L49.0024 3.6125L52.0035 9.55729C52.1319 9.81166 52.3696 9.98552 52.6418 10.0242L59.2268 10.9597L54.5032 15.4611C54.2855 15.6685 54.1855 15.9789 54.2387 16.282L55.3669 22.7126L49.3775 19.6343C49.1409 19.5126 48.8639 19.5126 48.6273 19.6343Z" fill="#9D875C"/>
<path fill-rule="evenodd" clip-rule="evenodd" d="M76.6574 24.1325C76.5309 24.8531 77.242 25.4172 77.87 25.0944L85.0024 21.4285L92.1349 25.0944C92.7629 25.4172 93.4739 24.8531 93.3475 24.1325L91.9992 16.4471L97.723 10.9925C98.2579 10.4828 97.981 9.55072 97.2644 9.44892L89.3044 8.31813L85.7552 1.2875C85.4355 0.654168 84.5694 0.654168 84.2497 1.2875L80.7005 8.31813L72.7405 9.44892C72.0239 9.55072 71.747 10.4828 72.2819 10.9925L78.0057 16.4471L76.6574 24.1325ZM84.6273 19.6343L78.638 22.7126L79.7662 16.282C79.8193 15.9789 79.7193 15.6685 79.5017 15.4611L74.7781 10.9597L81.3631 10.0242C81.6353 9.98552 81.873 9.81166 82.0014 9.55729L85.0024 3.6125L88.0035 9.55729C88.1319 9.81166 88.3696 9.98552 88.6418 10.0242L95.2268 10.9597L90.5032 15.4611C90.2855 15.6685 90.1855 15.9789 90.2387 16.282L91.3669 22.7126L85.3775 19.6343C85.1409 19.5126 84.8639 19.5126 84.6273 19.6343Z" fill="#9D875C"/>
<path fill-rule="evenodd" clip-rule="evenodd" d="M112.657 24.1325C112.531 24.8531 113.242 25.4172 113.87 25.0944L121.002 21.4285L128.135 25.0944C128.763 25.4172 129.474 24.8531 129.348 24.1325L127.999 16.4471L133.723 10.9925C134.258 10.4828 133.981 9.55072 133.264 9.44892L125.304 8.31813L121.755 1.2875C121.435 0.654168 120.569 0.654168 120.25 1.2875L116.7 8.31813L108.74 9.44892C108.024 9.55072 107.747 10.4828 108.282 10.9925L114.006 16.4471L112.657 24.1325ZM120.627 19.6343L114.638 22.7126L115.766 16.282C115.819 15.9789 115.719 15.6685 115.502 15.4611L110.778 10.9597L117.363 10.0242C117.635 9.98552 117.873 9.81166 118.001 9.55729L121.002 3.6125L124.003 9.55729C124.132 9.81166 124.37 9.98552 124.642 10.0242L131.227 10.9597L126.503 15.4611C126.286 15.6685 126.186 15.9789 126.239 16.282L127.367 22.7126L121.378 19.6343C121.141 19.5126 120.864 19.5126 120.627 19.6343Z" fill="#9D875C"/>
<path fill-rule="evenodd" clip-rule="evenodd" d="M148.657 24.1325C148.531 24.8531 149.242 25.4172 149.87 25.0944L157.002 21.4285L164.135 25.0944C164.763 25.4172 165.474 24.8531 165.348 24.1325L163.999 16.4471L169.723 10.9925C170.258 10.4828 169.981 9.55072 169.264 9.44892L161.304 8.31813L157.755 1.2875C157.435 0.654168 156.569 0.654168 156.25 1.2875L152.7 8.31813L144.74 9.44892C144.024 9.55072 143.747 10.4828 144.282 10.9925L150.006 16.4471L148.657 24.1325ZM156.627 19.6343L150.638 22.7126L151.766 16.282C151.819 15.9789 151.719 15.6685 151.502 15.4611L146.778 10.9597L153.363 10.0242C153.635 9.98552 153.873 9.81166 154.001 9.55729L157.002 3.6125L160.003 9.55729C160.132 9.81166 160.37 9.98552 160.642 10.0242L167.227 10.9597L162.503 15.4611C162.286 15.6685 162.186 15.9789 162.239 16.282L163.367 22.7126L157.378 19.6343C157.141 19.5126 156.864 19.5126 156.627 19.6343Z" fill="#9D875C"/>
</svg>
