<svg width="170" height="26" viewBox="0 0 170 26" fill="none" xmlns="http://www.w3.org/2000/svg">
<path d="M5.86995 25.0944C5.24198 25.4172 4.53094 24.8531 4.65736 24.1325L6.00567 16.4471L0.281882 10.9925C-0.253037 10.4828 0.0238633 9.55072 0.740471 9.44892L8.70049 8.31813L12.2497 1.2875C12.5694 0.654168 13.4355 0.654168 13.7552 1.2875L17.3044 8.31813L25.2644 9.44892C25.981 9.55072 26.2579 10.4828 25.723 10.9925L19.9992 16.4471L21.3475 24.1325C21.4739 24.8531 20.7629 25.4172 20.1349 25.0944L13.0024 21.4285L5.86995 25.0944Z" fill="#9D875C"/>
<path d="M41.87 25.0944C41.242 25.4172 40.5309 24.8531 40.6574 24.1325L42.0057 16.4471L36.2819 10.9925C35.747 10.4828 36.0239 9.55072 36.7405 9.44892L44.7005 8.31813L48.2497 1.2875C48.5694 0.654168 49.4355 0.654168 49.7552 1.2875L53.3044 8.31813L61.2644 9.44892C61.981 9.55072 62.2579 10.4828 61.723 10.9925L55.9992 16.4471L57.3475 24.1325C57.4739 24.8531 56.7629 25.4172 56.1349 25.0944L49.0024 21.4285L41.87 25.0944Z" fill="#9D875C"/>
<path d="M77.87 25.0944C77.242 25.4172 76.5309 24.8531 76.6574 24.1325L78.0057 16.4471L72.2819 10.9925C71.747 10.4828 72.0239 9.55072 72.7405 9.44892L80.7005 8.31813L84.2497 1.2875C84.5694 0.654168 85.4355 0.654168 85.7552 1.2875L89.3044 8.31813L97.2644 9.44892C97.981 9.55072 98.2579 10.4828 97.723 10.9925L91.9992 16.4471L93.3475 24.1325C93.4739 24.8531 92.7629 25.4172 92.1349 25.0944L85.0024 21.4285L77.87 25.0944Z" fill="#9D875C"/>
<path d="M113.87 25.0944C113.242 25.4172 112.531 24.8531 112.657 24.1325L114.006 16.4471L108.282 10.9925C107.747 10.4828 108.024 9.55072 108.74 9.44892L116.7 8.31813L120.25 1.2875C120.569 0.654168 121.435 0.654168 121.755 1.2875L125.304 8.31813L133.264 9.44892C133.981 9.55072 134.258 10.4828 133.723 10.9925L127.999 16.4471L129.348 24.1325C129.474 24.8531 128.763 25.4172 128.135 25.0944L121.002 21.4285L113.87 25.0944Z" fill="#9D875C"/>
<path d="M149.87 25.0944C149.242 25.4172 148.531 24.8531 148.657 24.1325L150.006 16.4471L144.282 10.9925C143.747 10.4828 144.024 9.55072 144.74 9.44892L152.7 8.31813L156.25 1.2875C156.569 0.654168 157.435 0.654168 157.755 1.2875L161.304 8.31813L169.264 9.44892C169.981 9.55072 170.258 10.4828 169.723 10.9925L163.999 16.4471L165.348 24.1325C165.474 24.8531 164.763 25.4172 164.135 25.0944L157.002 21.4285L149.87 25.0944Z" fill="#9D875C"/>
</svg>
